<?xml version="1.0" encoding="utf-8" standalone="no"?>
<!DOCTYPE svg PUBLIC "-//W3C//DTD SVG 1.1//EN"
  "http://www.w3.org/Graphics/SVG/1.1/DTD/svg11.dtd">
<svg xmlns:xlink="http://www.w3.org/1999/xlink" width="521.6pt" height="334.4pt" viewBox="0 0 521.6 334.4" xmlns="http://www.w3.org/2000/svg" version="1.1">
 <metadata>
  <rdf:RDF xmlns:dc="http://purl.org/dc/elements/1.1/" xmlns:cc="http://creativecommons.org/ns#" xmlns:rdf="http://www.w3.org/1999/02/22-rdf-syntax-ns#">
   <cc:Work>
    <dc:type rdf:resource="http://purl.org/dc/dcmitype/StillImage"/>
    <dc:date>2026-08-05T21:53:14.136689</dc:date>
    <dc:format>image/svg+xml</dc:format>
    <dc:creator>
     <cc:Agent>
      <dc:title>Matplotlib v3.10.9, https://matplotlib.org/</dc:title>
     </cc:Agent>
    </dc:creator>
   </cc:Work>
  </rdf:RDF>
 </metadata>
 <defs>
  <style type="text/css">*{stroke-linejoin: round; stroke-linecap: butt}</style>
 </defs>
 <g id="figure_1">
  <g id="patch_1">
   <path d="M 0 334.4 
L 521.6 334.4 
L 521.6 0 
L 0 0 
z
" style="fill: #ffffff"/>
  </g>
  <g id="axes_1">
   <g id="patch_2">
    <path d="M 159.36 68 
L 362.24 68 
Q 367.312 68 367.312 64.8 
L 367.312 23.2 
Q 367.312 20 362.24 20 
L 159.36 20 
Q 154.288 20 154.288 23.2 
L 154.288 64.8 
Q 154.288 68 159.36 68 
z
" clip-path="url(#pf40c9a8c79)" style="fill: #0f4d92; opacity: 0.1; stroke: #0f4d92; stroke-width: 0.7; stroke-linejoin: miter"/>
   </g>
   <g id="patch_3">
    <path d="M 159.36 132 
L 362.24 132 
Q 367.312 132 367.312 128.8 
L 367.312 87.2 
Q 367.312 84 362.24 84 
L 159.36 84 
Q 154.288 84 154.288 87.2 
L 154.288 128.8 
Q 154.288 132 159.36 132 
z
" clip-path="url(#pf40c9a8c79)" style="fill: #42949e; opacity: 0.1; stroke: #42949e; stroke-width: 0.7; stroke-linejoin: miter"/>
   </g>
   <g id="patch_4">
    <path d="M 159.36 196 
L 362.24 196 
Q 367.312 196 367.312 192.8 
L 367.312 151.2 
Q 367.312 148 362.24 148 
L 159.36 148 
Q 154.288 148 154.288 151.2 
L 154.288 192.8 
Q 154.288 196 159.36 196 
z
" clip-path="url(#pf40c9a8c79)" style="fill: #9a4d8e; opacity: 0.1; stroke: #9a4d8e; stroke-width: 0.7; stroke-linejoin: miter"/>
   </g>
   <g id="patch_5">
    <path d="M 159.36 260 
L 362.24 260 
Q 367.312 260 367.312 256.8 
L 367.312 215.2 
Q 367.312 212 362.24 212 
L 159.36 212 
Q 154.288 212 154.288 215.2 
L 154.288 256.8 
Q 154.288 260 159.36 260 
z
" clip-path="url(#pf40c9a8c79)" style="fill: #8bcf8b; opacity: 0.1; stroke: #8bcf8b; stroke-width: 0.7; stroke-linejoin: miter"/>
   </g>
   <g id="patch_6">
    <path d="M 12.272 260 
L 128.928 260 
Q 134 260 134 256.8 
L 134 23.2 
Q 134 20 128.928 20 
L 12.272 20 
Q 7.2 20 7.2 23.2 
L 7.2 256.8 
Q 7.2 260 12.272 260 
z
" clip-path="url(#pf40c9a8c79)" style="fill: #cfcece; opacity: 0.3; stroke: #767676; stroke-width: 0.6; stroke-linejoin: miter"/>
   </g>
   <g id="patch_7">
    <path d="M 392.672 260 
L 509.328 260 
Q 514.4 260 514.4 256.8 
L 514.4 23.2 
Q 514.4 20 509.328 20 
L 392.672 20 
Q 387.6 20 387.6 23.2 
L 387.6 256.8 
Q 387.6 260 392.672 260 
z
" clip-path="url(#pf40c9a8c79)" style="fill: #cfcece; opacity: 0.3; stroke: #767676; stroke-width: 0.6; stroke-linejoin: miter"/>
   </g>
   <g id="patch_8">
    <path d="M 159.36 311.2 
L 362.24 311.2 
Q 367.312 311.2 367.312 308 
L 367.312 272.8 
Q 367.312 269.6 362.24 269.6 
L 159.36 269.6 
Q 154.288 269.6 154.288 272.8 
L 154.288 308 
Q 154.288 311.2 159.36 311.2 
z
" clip-path="url(#pf40c9a8c79)" style="fill: #cfcece; opacity: 0.45; stroke: #767676; stroke-width: 0.6; stroke-linejoin: miter"/>
   </g>
   <g id="patch_9">
    <path d="M 159.36 64.8 
L 166.968 64.8 
L 166.968 23.2 
L 159.36 23.2 
z
" clip-path="url(#pf40c9a8c79)" style="fill: #0f4d92; opacity: 0.9"/>
   </g>
   <g id="patch_10">
    <path d="M 159.36 128.8 
L 166.968 128.8 
L 166.968 87.2 
L 159.36 87.2 
z
" clip-path="url(#pf40c9a8c79)" style="fill: #42949e; opacity: 0.9"/>
   </g>
   <g id="patch_11">
    <path d="M 159.36 192.8 
L 166.968 192.8 
L 166.968 151.2 
L 159.36 151.2 
z
" clip-path="url(#pf40c9a8c79)" style="fill: #9a4d8e; opacity: 0.9"/>
   </g>
   <g id="patch_12">
    <path d="M 159.36 256.8 
L 166.968 256.8 
L 166.968 215.2 
L 159.36 215.2 
z
" clip-path="url(#pf40c9a8c79)" style="fill: #8bcf8b; opacity: 0.9"/>
   </g>
   <g id="line2d_1">
    <path d="M 276.016 183.84 
L 298.84 183.84 
" clip-path="url(#pf40c9a8c79)" style="fill: none; stroke: #9a4d8e; stroke-opacity: 0.18; stroke-width: 0.25; stroke-linecap: square"/>
   </g>
   <g id="line2d_2">
    <path d="M 276.016 183.84 
L 298.84 175.946667 
" clip-path="url(#pf40c9a8c79)" style="fill: none; stroke: #9a4d8e; stroke-opacity: 0.18; stroke-width: 0.25; stroke-linecap: square"/>
   </g>
   <g id="line2d_3">
    <path d="M 276.016 183.84 
L 298.84 168.053333 
" clip-path="url(#pf40c9a8c79)" style="fill: none; stroke: #9a4d8e; stroke-opacity: 0.18; stroke-width: 0.25; stroke-linecap: square"/>
   </g>
   <g id="line2d_4">
    <path d="M 276.016 183.84 
L 298.84 160.16 
" clip-path="url(#pf40c9a8c79)" style="fill: none; stroke: #9a4d8e; stroke-opacity: 0.18; stroke-width: 0.25; stroke-linecap: square"/>
   </g>
   <g id="line2d_5">
    <path d="M 276.016 175.946667 
L 298.84 183.84 
" clip-path="url(#pf40c9a8c79)" style="fill: none; stroke: #9a4d8e; stroke-opacity: 0.18; stroke-width: 0.25; stroke-linecap: square"/>
   </g>
   <g id="line2d_6">
    <path d="M 276.016 175.946667 
L 298.84 175.946667 
" clip-path="url(#pf40c9a8c79)" style="fill: none; stroke: #9a4d8e; stroke-opacity: 0.18; stroke-width: 0.25; stroke-linecap: square"/>
   </g>
   <g id="line2d_7">
    <path d="M 276.016 175.946667 
L 298.84 168.053333 
" clip-path="url(#pf40c9a8c79)" style="fill: none; stroke: #9a4d8e; stroke-opacity: 0.18; stroke-width: 0.25; stroke-linecap: square"/>
   </g>
   <g id="line2d_8">
    <path d="M 276.016 175.946667 
L 298.84 160.16 
" clip-path="url(#pf40c9a8c79)" style="fill: none; stroke: #9a4d8e; stroke-opacity: 0.18; stroke-width: 0.25; stroke-linecap: square"/>
   </g>
   <g id="line2d_9">
    <path d="M 276.016 168.053333 
L 298.84 183.84 
" clip-path="url(#pf40c9a8c79)" style="fill: none; stroke: #9a4d8e; stroke-opacity: 0.18; stroke-width: 0.25; stroke-linecap: square"/>
   </g>
   <g id="line2d_10">
    <path d="M 276.016 168.053333 
L 298.84 175.946667 
" clip-path="url(#pf40c9a8c79)" style="fill: none; stroke: #9a4d8e; stroke-opacity: 0.18; stroke-width: 0.25; stroke-linecap: square"/>
   </g>
   <g id="line2d_11">
    <path d="M 276.016 168.053333 
L 298.84 168.053333 
" clip-path="url(#pf40c9a8c79)" style="fill: none; stroke: #9a4d8e; stroke-opacity: 0.18; stroke-width: 0.25; stroke-linecap: square"/>
   </g>
   <g id="line2d_12">
    <path d="M 276.016 168.053333 
L 298.84 160.16 
" clip-path="url(#pf40c9a8c79)" style="fill: none; stroke: #9a4d8e; stroke-opacity: 0.18; stroke-width: 0.25; stroke-linecap: square"/>
   </g>
   <g id="line2d_13">
    <path d="M 276.016 160.16 
L 298.84 183.84 
" clip-path="url(#pf40c9a8c79)" style="fill: none; stroke: #9a4d8e; stroke-opacity: 0.18; stroke-width: 0.25; stroke-linecap: square"/>
   </g>
   <g id="line2d_14">
    <path d="M 276.016 160.16 
L 298.84 175.946667 
" clip-path="url(#pf40c9a8c79)" style="fill: none; stroke: #9a4d8e; stroke-opacity: 0.18; stroke-width: 0.25; stroke-linecap: square"/>
   </g>
   <g id="line2d_15">
    <path d="M 276.016 160.16 
L 298.84 168.053333 
" clip-path="url(#pf40c9a8c79)" style="fill: none; stroke: #9a4d8e; stroke-opacity: 0.18; stroke-width: 0.25; stroke-linecap: square"/>
   </g>
   <g id="line2d_16">
    <path d="M 276.016 160.16 
L 298.84 160.16 
" clip-path="url(#pf40c9a8c79)" style="fill: none; stroke: #9a4d8e; stroke-opacity: 0.18; stroke-width: 0.25; stroke-linecap: square"/>
   </g>
   <g id="line2d_17">
    <path d="M 298.84 183.84 
L 321.664 183.84 
" clip-path="url(#pf40c9a8c79)" style="fill: none; stroke: #9a4d8e; stroke-opacity: 0.18; stroke-width: 0.25; stroke-linecap: square"/>
   </g>
   <g id="line2d_18">
    <path d="M 298.84 183.84 
L 321.664 175.946667 
" clip-path="url(#pf40c9a8c79)" style="fill: none; stroke: #9a4d8e; stroke-opacity: 0.18; stroke-width: 0.25; stroke-linecap: square"/>
   </g>
   <g id="line2d_19">
    <path d="M 298.84 183.84 
L 321.664 168.053333 
" clip-path="url(#pf40c9a8c79)" style="fill: none; stroke: #9a4d8e; stroke-opacity: 0.18; stroke-width: 0.25; stroke-linecap: square"/>
   </g>
   <g id="line2d_20">
    <path d="M 298.84 183.84 
L 321.664 160.16 
" clip-path="url(#pf40c9a8c79)" style="fill: none; stroke: #9a4d8e; stroke-opacity: 0.18; stroke-width: 0.25; stroke-linecap: square"/>
   </g>
   <g id="line2d_21">
    <path d="M 298.84 175.946667 
L 321.664 183.84 
" clip-path="url(#pf40c9a8c79)" style="fill: none; stroke: #9a4d8e; stroke-opacity: 0.18; stroke-width: 0.25; stroke-linecap: square"/>
   </g>
   <g id="line2d_22">
    <path d="M 298.84 175.946667 
L 321.664 175.946667 
" clip-path="url(#pf40c9a8c79)" style="fill: none; stroke: #9a4d8e; stroke-opacity: 0.18; stroke-width: 0.25; stroke-linecap: square"/>
   </g>
   <g id="line2d_23">
    <path d="M 298.84 175.946667 
L 321.664 168.053333 
" clip-path="url(#pf40c9a8c79)" style="fill: none; stroke: #9a4d8e; stroke-opacity: 0.18; stroke-width: 0.25; stroke-linecap: square"/>
   </g>
   <g id="line2d_24">
    <path d="M 298.84 175.946667 
L 321.664 160.16 
" clip-path="url(#pf40c9a8c79)" style="fill: none; stroke: #9a4d8e; stroke-opacity: 0.18; stroke-width: 0.25; stroke-linecap: square"/>
   </g>
   <g id="line2d_25">
    <path d="M 298.84 168.053333 
L 321.664 183.84 
" clip-path="url(#pf40c9a8c79)" style="fill: none; stroke: #9a4d8e; stroke-opacity: 0.18; stroke-width: 0.25; stroke-linecap: square"/>
   </g>
   <g id="line2d_26">
    <path d="M 298.84 168.053333 
L 321.664 175.946667 
" clip-path="url(#pf40c9a8c79)" style="fill: none; stroke: #9a4d8e; stroke-opacity: 0.18; stroke-width: 0.25; stroke-linecap: square"/>
   </g>
   <g id="line2d_27">
    <path d="M 298.84 168.053333 
L 321.664 168.053333 
" clip-path="url(#pf40c9a8c79)" style="fill: none; stroke: #9a4d8e; stroke-opacity: 0.18; stroke-width: 0.25; stroke-linecap: square"/>
   </g>
   <g id="line2d_28">
    <path d="M 298.84 168.053333 
L 321.664 160.16 
" clip-path="url(#pf40c9a8c79)" style="fill: none; stroke: #9a4d8e; stroke-opacity: 0.18; stroke-width: 0.25; stroke-linecap: square"/>
   </g>
   <g id="line2d_29">
    <path d="M 298.84 160.16 
L 321.664 183.84 
" clip-path="url(#pf40c9a8c79)" style="fill: none; stroke: #9a4d8e; stroke-opacity: 0.18; stroke-width: 0.25; stroke-linecap: square"/>
   </g>
   <g id="line2d_30">
    <path d="M 298.84 160.16 
L 321.664 175.946667 
" clip-path="url(#pf40c9a8c79)" style="fill: none; stroke: #9a4d8e; stroke-opacity: 0.18; stroke-width: 0.25; stroke-linecap: square"/>
   </g>
   <g id="line2d_31">
    <path d="M 298.84 160.16 
L 321.664 168.053333 
" clip-path="url(#pf40c9a8c79)" style="fill: none; stroke: #9a4d8e; stroke-opacity: 0.18; stroke-width: 0.25; stroke-linecap: square"/>
   </g>
   <g id="line2d_32">
    <path d="M 298.84 160.16 
L 321.664 160.16 
" clip-path="url(#pf40c9a8c79)" style="fill: none; stroke: #9a4d8e; stroke-opacity: 0.18; stroke-width: 0.25; stroke-linecap: square"/>
   </g>
   <g id="line2d_33">
    <path d="M 321.664 183.84 
L 344.488 183.84 
" clip-path="url(#pf40c9a8c79)" style="fill: none; stroke: #9a4d8e; stroke-opacity: 0.18; stroke-width: 0.25; stroke-linecap: square"/>
   </g>
   <g id="line2d_34">
    <path d="M 321.664 183.84 
L 344.488 172 
" clip-path="url(#pf40c9a8c79)" style="fill: none; stroke: #9a4d8e; stroke-opacity: 0.18; stroke-width: 0.25; stroke-linecap: square"/>
   </g>
   <g id="line2d_35">
    <path d="M 321.664 183.84 
L 344.488 160.16 
" clip-path="url(#pf40c9a8c79)" style="fill: none; stroke: #9a4d8e; stroke-opacity: 0.18; stroke-width: 0.25; stroke-linecap: square"/>
   </g>
   <g id="line2d_36">
    <path d="M 321.664 175.946667 
L 344.488 183.84 
" clip-path="url(#pf40c9a8c79)" style="fill: none; stroke: #9a4d8e; stroke-opacity: 0.18; stroke-width: 0.25; stroke-linecap: square"/>
   </g>
   <g id="line2d_37">
    <path d="M 321.664 175.946667 
L 344.488 172 
" clip-path="url(#pf40c9a8c79)" style="fill: none; stroke: #9a4d8e; stroke-opacity: 0.18; stroke-width: 0.25; stroke-linecap: square"/>
   </g>
   <g id="line2d_38">
    <path d="M 321.664 175.946667 
L 344.488 160.16 
" clip-path="url(#pf40c9a8c79)" style="fill: none; stroke: #9a4d8e; stroke-opacity: 0.18; stroke-width: 0.25; stroke-linecap: square"/>
   </g>
   <g id="line2d_39">
    <path d="M 321.664 168.053333 
L 344.488 183.84 
" clip-path="url(#pf40c9a8c79)" style="fill: none; stroke: #9a4d8e; stroke-opacity: 0.18; stroke-width: 0.25; stroke-linecap: square"/>
   </g>
   <g id="line2d_40">
    <path d="M 321.664 168.053333 
L 344.488 172 
" clip-path="url(#pf40c9a8c79)" style="fill: none; stroke: #9a4d8e; stroke-opacity: 0.18; stroke-width: 0.25; stroke-linecap: square"/>
   </g>
   <g id="line2d_41">
    <path d="M 321.664 168.053333 
L 344.488 160.16 
" clip-path="url(#pf40c9a8c79)" style="fill: none; stroke: #9a4d8e; stroke-opacity: 0.18; stroke-width: 0.25; stroke-linecap: square"/>
   </g>
   <g id="line2d_42">
    <path d="M 321.664 160.16 
L 344.488 183.84 
" clip-path="url(#pf40c9a8c79)" style="fill: none; stroke: #9a4d8e; stroke-opacity: 0.18; stroke-width: 0.25; stroke-linecap: square"/>
   </g>
   <g id="line2d_43">
    <path d="M 321.664 160.16 
L 344.488 172 
" clip-path="url(#pf40c9a8c79)" style="fill: none; stroke: #9a4d8e; stroke-opacity: 0.18; stroke-width: 0.25; stroke-linecap: square"/>
   </g>
   <g id="line2d_44">
    <path d="M 321.664 160.16 
L 344.488 160.16 
" clip-path="url(#pf40c9a8c79)" style="fill: none; stroke: #9a4d8e; stroke-opacity: 0.18; stroke-width: 0.25; stroke-linecap: square"/>
   </g>
   <g id="patch_13">
    <path d="M 19.88 54.24 
L 121.32 54.24 
Q 124.8704 54.24 124.8704 52 
L 124.8704 37.92 
Q 124.8704 35.68 121.32 35.68 
L 19.88 35.68 
Q 16.3296 35.68 16.3296 37.92 
L 16.3296 52 
Q 16.3296 54.24 19.88 54.24 
z
" clip-path="url(#pf40c9a8c79)" style="fill: #ffffff; stroke: #767676; stroke-width: 0.5; stroke-linejoin: miter"/>
   </g>
   <g id="patch_14">
    <path d="M 19.88 73.44 
L 121.32 73.44 
Q 124.8704 73.44 124.8704 71.2 
L 124.8704 57.12 
Q 124.8704 54.88 121.32 54.88 
L 19.88 54.88 
Q 16.3296 54.88 16.3296 57.12 
L 16.3296 71.2 
Q 16.3296 73.44 19.88 73.44 
z
" clip-path="url(#pf40c9a8c79)" style="fill: #ffffff; stroke: #767676; stroke-width: 0.5; stroke-linejoin: miter"/>
   </g>
   <g id="patch_15">
    <path d="M 19.88 92.64 
L 121.32 92.64 
Q 124.8704 92.64 124.8704 90.4 
L 124.8704 76.32 
Q 124.8704 74.08 121.32 74.08 
L 19.88 74.08 
Q 16.3296 74.08 16.3296 76.32 
L 16.3296 90.4 
Q 16.3296 92.64 19.88 92.64 
z
" clip-path="url(#pf40c9a8c79)" style="fill: #ffffff; stroke: #767676; stroke-width: 0.5; stroke-linejoin: miter"/>
   </g>
   <g id="patch_16">
    <path d="M 19.88 111.84 
L 121.32 111.84 
Q 124.8704 111.84 124.8704 109.6 
L 124.8704 95.52 
Q 124.8704 93.28 121.32 93.28 
L 19.88 93.28 
Q 16.3296 93.28 16.3296 95.52 
L 16.3296 109.6 
Q 16.3296 111.84 19.88 111.84 
z
" clip-path="url(#pf40c9a8c79)" style="fill: #ffffff; stroke: #767676; stroke-width: 0.5; stroke-linejoin: miter"/>
   </g>
   <g id="patch_17">
    <path d="M 19.88 150.24 
L 121.32 150.24 
Q 124.8704 150.24 124.8704 148 
L 124.8704 133.92 
Q 124.8704 131.68 121.32 131.68 
L 19.88 131.68 
Q 16.3296 131.68 16.3296 133.92 
L 16.3296 148 
Q 16.3296 150.24 19.88 150.24 
z
" clip-path="url(#pf40c9a8c79)" style="fill: #ffffff; stroke: #767676; stroke-width: 0.5; stroke-linejoin: miter"/>
   </g>
   <g id="patch_18">
    <path d="M 19.88 169.44 
L 121.32 169.44 
Q 124.8704 169.44 124.8704 167.2 
L 124.8704 153.12 
Q 124.8704 150.88 121.32 150.88 
L 19.88 150.88 
Q 16.3296 150.88 16.3296 153.12 
L 16.3296 167.2 
Q 16.3296 169.44 19.88 169.44 
z
" clip-path="url(#pf40c9a8c79)" style="fill: #ffffff; stroke: #767676; stroke-width: 0.5; stroke-linejoin: miter"/>
   </g>
   <g id="patch_19">
    <path d="M 400.28 54.24 
L 501.72 54.24 
Q 505.2704 54.24 505.2704 52 
L 505.2704 37.92 
Q 505.2704 35.68 501.72 35.68 
L 400.28 35.68 
Q 396.7296 35.68 396.7296 37.92 
L 396.7296 52 
Q 396.7296 54.24 400.28 54.24 
z
" clip-path="url(#pf40c9a8c79)" style="fill: #ffffff; stroke: #767676; stroke-width: 0.5; stroke-linejoin: miter"/>
   </g>
   <g id="patch_20">
    <path d="M 400.28 73.44 
L 501.72 73.44 
Q 505.2704 73.44 505.2704 71.2 
L 505.2704 57.12 
Q 505.2704 54.88 501.72 54.88 
L 400.28 54.88 
Q 396.7296 54.88 396.7296 57.12 
L 396.7296 71.2 
Q 396.7296 73.44 400.28 73.44 
z
" clip-path="url(#pf40c9a8c79)" style="fill: #ffffff; stroke: #767676; stroke-width: 0.5; stroke-linejoin: miter"/>
   </g>
   <g id="patch_21">
    <path d="M 400.28 92.64 
L 501.72 92.64 
Q 505.2704 92.64 505.2704 90.4 
L 505.2704 76.32 
Q 505.2704 74.08 501.72 74.08 
L 400.28 74.08 
Q 396.7296 74.08 396.7296 76.32 
L 396.7296 90.4 
Q 396.7296 92.64 400.28 92.64 
z
" clip-path="url(#pf40c9a8c79)" style="fill: #ffffff; stroke: #767676; stroke-width: 0.5; stroke-linejoin: miter"/>
   </g>
   <g id="patch_22">
    <path d="M 400.28 111.84 
L 501.72 111.84 
Q 505.2704 111.84 505.2704 109.6 
L 505.2704 95.52 
Q 505.2704 93.28 501.72 93.28 
L 400.28 93.28 
Q 396.7296 93.28 396.7296 95.52 
L 396.7296 109.6 
Q 396.7296 111.84 400.28 111.84 
z
" clip-path="url(#pf40c9a8c79)" style="fill: #ffffff; stroke: #767676; stroke-width: 0.5; stroke-linejoin: miter"/>
   </g>
   <g id="patch_23">
    <path d="M 400.28 131.04 
L 501.72 131.04 
Q 505.2704 131.04 505.2704 128.8 
L 505.2704 114.72 
Q 505.2704 112.48 501.72 112.48 
L 400.28 112.48 
Q 396.7296 112.48 396.7296 114.72 
L 396.7296 128.8 
Q 396.7296 131.04 400.28 131.04 
z
" clip-path="url(#pf40c9a8c79)" style="fill: #ffffff; stroke: #767676; stroke-width: 0.5; stroke-linejoin: miter"/>
   </g>
   <g id="patch_24">
    <path d="M 400.28 150.24 
L 501.72 150.24 
Q 505.2704 150.24 505.2704 148 
L 505.2704 133.92 
Q 505.2704 131.68 501.72 131.68 
L 400.28 131.68 
Q 396.7296 131.68 396.7296 133.92 
L 396.7296 148 
Q 396.7296 150.24 400.28 150.24 
z
" clip-path="url(#pf40c9a8c79)" style="fill: #ffffff; stroke: #767676; stroke-width: 0.5; stroke-linejoin: miter"/>
   </g>
   <g id="text_1">
    <text style="font-weight: 700; font-size: 7px; font-family: 'Arial', 'Helvetica', 'DejaVu Sans', sans-serif; text-anchor: start; fill: #0f4d92" x="175.5904" y="34.610469" transform="rotate(-0 175.5904 34.610469)">Application layer</text>
   </g>
   <g id="text_2">
    <text style="font-size: 5.4px; font-family: 'Arial', 'Helvetica', 'DejaVu Sans', sans-serif; text-anchor: start; fill: #4d4d4d" x="175.5904" y="43.131031" transform="rotate(-0 175.5904 43.131031)">React + Three.js + Chart.js</text>
   </g>
   <g id="text_3">
    <text style="font-size: 5.4px; font-family: 'Arial', 'Helvetica', 'DejaVu Sans', sans-serif; text-anchor: start; fill: #4d4d4d" x="175.5904" y="51.134406" transform="rotate(-0 175.5904 51.134406)">client-side SPA, ~14k LOC TypeScript</text>
   </g>
   <g id="text_4">
    <text style="font-weight: 700; font-size: 7px; font-family: 'Arial', 'Helvetica', 'DejaVu Sans', sans-serif; text-anchor: start; fill: #42949e" x="175.5904" y="98.695781" transform="rotate(-0 175.5904 98.695781)">Simulation layer</text>
   </g>
   <g id="text_5">
    <text style="font-size: 5.4px; font-family: 'Arial', 'Helvetica', 'DejaVu Sans', sans-serif; text-anchor: start; fill: #4d4d4d" x="175.5904" y="107.131031" transform="rotate(-0 175.5904 107.131031)">spatial ABM (4 cell types) + 10-factor</text>
   </g>
   <g id="text_6">
    <text style="font-size: 5.4px; font-family: 'Arial', 'Helvetica', 'DejaVu Sans', sans-serif; text-anchor: start; fill: #4d4d4d" x="175.5904" y="115.131031" transform="rotate(-0 175.5904 115.131031)">reaction-diffusion field + checkpoint phagocytosis</text>
   </g>
   <g id="text_7">
    <text style="font-weight: 700; font-size: 7px; font-family: 'Arial', 'Helvetica', 'DejaVu Sans', sans-serif; text-anchor: start; fill: #9a4d8e" x="175.5904" y="162.610469" transform="rotate(-0 175.5904 162.610469)">AI layer</text>
   </g>
   <g id="text_8">
    <text style="font-size: 5.4px; font-family: 'Arial', 'Helvetica', 'DejaVu Sans', sans-serif; text-anchor: start; fill: #4d4d4d" x="175.5904" y="171.131031" transform="rotate(-0 175.5904 171.131031)">neural surrogate (MLP)</text>
   </g>
   <g id="text_9">
    <text style="font-size: 5.4px; font-family: 'Arial', 'Helvetica', 'DejaVu Sans', sans-serif; text-anchor: start; fill: #4d4d4d" x="175.5904" y="179.065219" transform="rotate(-0 175.5904 179.065219)">context -&gt; M1 / M2</text>
   </g>
   <g id="text_10">
    <!-- $\approx$8$\times$ vs ODE (RK4) -->
    <g style="fill: #9a4d8e" transform="translate(175.5904 187.142)">
     <text>
      <tspan x="1.04718" y="-0.359375" style="font-size: 5.4px; font-family: 'DejaVu Sans'; fill: #9a4d8e">≈</tspan>
      <tspan x="9.587341" y="-0.359375" style="font-size: 5.4px; font-family: 'DejaVu Sans'; fill: #9a4d8e">×</tspan>
      <tspan x="6.598022" y="-0.359375" style="font-weight: 700; font-size: 5.4px; font-family: 'Arial'; fill: #9a4d8e">8</tspan>
      <tspan x="14.091003" y="-0.359375" style="font-weight: 700; font-size: 5.4px; font-family: 'Arial'; fill: #9a4d8e"> </tspan>
      <tspan x="15.584351" y="-0.359375" style="font-weight: 700; font-size: 5.4px; font-family: 'Arial'; fill: #9a4d8e">v</tspan>
      <tspan x="18.573669" y="-0.359375" style="font-weight: 700; font-size: 5.4px; font-family: 'Arial'; fill: #9a4d8e">s</tspan>
      <tspan x="21.562988" y="-0.359375" style="font-weight: 700; font-size: 5.4px; font-family: 'Arial'; fill: #9a4d8e"> </tspan>
      <tspan x="23.056335" y="-0.359375" style="font-weight: 700; font-size: 5.4px; font-family: 'Arial'; fill: #9a4d8e">O</tspan>
      <tspan x="27.237183" y="-0.359375" style="font-weight: 700; font-size: 5.4px; font-family: 'Arial'; fill: #9a4d8e">D</tspan>
      <tspan x="31.118835" y="-0.359375" style="font-weight: 700; font-size: 5.4px; font-family: 'Arial'; fill: #9a4d8e">E</tspan>
      <tspan x="34.703918" y="-0.359375" style="font-weight: 700; font-size: 5.4px; font-family: 'Arial'; fill: #9a4d8e"> </tspan>
      <tspan x="36.197266" y="-0.359375" style="font-weight: 700; font-size: 5.4px; font-family: 'Arial'; fill: #9a4d8e">(</tspan>
      <tspan x="37.987183" y="-0.359375" style="font-weight: 700; font-size: 5.4px; font-family: 'Arial'; fill: #9a4d8e">R</tspan>
      <tspan x="41.868835" y="-0.359375" style="font-weight: 700; font-size: 5.4px; font-family: 'Arial'; fill: #9a4d8e">K</tspan>
      <tspan x="45.750488" y="-0.359375" style="font-weight: 700; font-size: 5.4px; font-family: 'Arial'; fill: #9a4d8e">4</tspan>
      <tspan x="48.739807" y="-0.359375" style="font-weight: 700; font-size: 5.4px; font-family: 'Arial'; fill: #9a4d8e">)</tspan>
     </text>
    </g>
   </g>
   <g id="text_11">
    <text style="font-weight: 700; font-size: 7px; font-family: 'Arial', 'Helvetica', 'DejaVu Sans', sans-serif; text-anchor: start; fill: #8bcf8b" x="175.5904" y="226.610469" transform="rotate(-0 175.5904 226.610469)">Data layer</text>
   </g>
   <g id="text_12">
    <text style="font-size: 5.4px; font-family: 'Arial', 'Helvetica', 'DejaVu Sans', sans-serif; text-anchor: start; fill: #4d4d4d" x="175.5904" y="235.065219" transform="rotate(-0 175.5904 235.065219)">scRNA-seq + TAM atlas + literature priors</text>
   </g>
   <g id="text_13">
    <text style="font-size: 5.4px; font-family: 'Arial', 'Helvetica', 'DejaVu Sans', sans-serif; text-anchor: start; fill: #4d4d4d" x="175.5904" y="243.065219" transform="rotate(-0 175.5904 243.065219)">calibratable parameters</text>
   </g>
   <g id="line2d_45">
    <defs>
     <path id="m13a11128b4" d="M 0 1.5 
C 0.397805 1.5 0.77937 1.341951 1.06066 1.06066 
C 1.341951 0.77937 1.5 0.397805 1.5 0 
C 1.5 -0.397805 1.341951 -0.77937 1.06066 -1.06066 
C 0.77937 -1.341951 0.397805 -1.5 0 -1.5 
C -0.397805 -1.5 -0.77937 -1.341951 -1.06066 -1.06066 
C -1.341951 -0.77937 -1.5 -0.397805 -1.5 0 
C -1.5 0.397805 -1.341951 0.77937 -1.06066 1.06066 
C -0.77937 1.341951 -0.397805 1.5 0 1.5 
z
" style="stroke: #ffffff; stroke-width: 0.4"/>
    </defs>
    <g clip-path="url(#pf40c9a8c79)">
     <use xlink:href="#m13a11128b4" x="276.016" y="183.84" style="fill: #9a4d8e; stroke: #ffffff; stroke-width: 0.4"/>
     <use xlink:href="#m13a11128b4" x="276.016" y="175.946667" style="fill: #9a4d8e; stroke: #ffffff; stroke-width: 0.4"/>
     <use xlink:href="#m13a11128b4" x="276.016" y="168.053333" style="fill: #9a4d8e; stroke: #ffffff; stroke-width: 0.4"/>
     <use xlink:href="#m13a11128b4" x="276.016" y="160.16" style="fill: #9a4d8e; stroke: #ffffff; stroke-width: 0.4"/>
    </g>
   </g>
   <g id="line2d_46">
    <g clip-path="url(#pf40c9a8c79)">
     <use xlink:href="#m13a11128b4" x="298.84" y="183.84" style="fill: #9a4d8e; stroke: #ffffff; stroke-width: 0.4"/>
     <use xlink:href="#m13a11128b4" x="298.84" y="175.946667" style="fill: #9a4d8e; stroke: #ffffff; stroke-width: 0.4"/>
     <use xlink:href="#m13a11128b4" x="298.84" y="168.053333" style="fill: #9a4d8e; stroke: #ffffff; stroke-width: 0.4"/>
     <use xlink:href="#m13a11128b4" x="298.84" y="160.16" style="fill: #9a4d8e; stroke: #ffffff; stroke-width: 0.4"/>
    </g>
   </g>
   <g id="line2d_47">
    <g clip-path="url(#pf40c9a8c79)">
     <use xlink:href="#m13a11128b4" x="321.664" y="183.84" style="fill: #9a4d8e; stroke: #ffffff; stroke-width: 0.4"/>
     <use xlink:href="#m13a11128b4" x="321.664" y="175.946667" style="fill: #9a4d8e; stroke: #ffffff; stroke-width: 0.4"/>
     <use xlink:href="#m13a11128b4" x="321.664" y="168.053333" style="fill: #9a4d8e; stroke: #ffffff; stroke-width: 0.4"/>
     <use xlink:href="#m13a11128b4" x="321.664" y="160.16" style="fill: #9a4d8e; stroke: #ffffff; stroke-width: 0.4"/>
    </g>
   </g>
   <g id="line2d_48">
    <g clip-path="url(#pf40c9a8c79)">
     <use xlink:href="#m13a11128b4" x="344.488" y="183.84" style="fill: #9a4d8e; stroke: #ffffff; stroke-width: 0.4"/>
     <use xlink:href="#m13a11128b4" x="344.488" y="172" style="fill: #9a4d8e; stroke: #ffffff; stroke-width: 0.4"/>
     <use xlink:href="#m13a11128b4" x="344.488" y="160.16" style="fill: #9a4d8e; stroke: #ffffff; stroke-width: 0.4"/>
    </g>
   </g>
   <g id="text_14">
    <text style="font-size: 4.6px; font-family: 'Arial', 'Helvetica', 'DejaVu Sans', sans-serif; text-anchor: middle; fill: #9a4d8e" x="311.52" y="189.829172" transform="rotate(-0 311.52 189.829172)">6-32-32-3</text>
   </g>
   <g id="text_15">
    <text style="font-weight: 700; font-size: 6.5px; font-family: 'Arial', 'Helvetica', 'DejaVu Sans', sans-serif; text-anchor: start; fill: #4d4d4d" x="19.88" y="34.252578" transform="rotate(-0 19.88 34.252578)">Design inputs</text>
   </g>
   <g id="text_16">
    <text style="font-size: 5px; font-family: 'Arial', 'Helvetica', 'DejaVu Sans', sans-serif; text-anchor: start; fill: #4d4d4d" x="26.4736" y="46.25375" transform="rotate(-0 26.4736 46.25375)">CAR signaling domain</text>
   </g>
   <g id="text_17">
    <text style="font-size: 5px; font-family: 'Arial', 'Helvetica', 'DejaVu Sans', sans-serif; text-anchor: start; fill: #4d4d4d" x="26.4736" y="65.423281" transform="rotate(-0 26.4736 65.423281)">target antigen</text>
   </g>
   <g id="text_18">
    <text style="font-size: 5px; font-family: 'Arial', 'Helvetica', 'DejaVu Sans', sans-serif; text-anchor: start; fill: #4d4d4d" x="26.4736" y="84.65375" transform="rotate(-0 26.4736 84.65375)">binding affinity</text>
   </g>
   <g id="text_19">
    <text style="font-size: 5px; font-family: 'Arial', 'Helvetica', 'DejaVu Sans', sans-serif; text-anchor: start; fill: #4d4d4d" x="26.4736" y="103.852578" transform="rotate(-0 26.4736 103.852578)">checkpoint blockade</text>
   </g>
   <g id="text_20">
    <text style="font-style: italic; font-size: 5px; font-family: 'Arial', 'Helvetica', 'DejaVu Sans', sans-serif; text-anchor: start; fill: #4d4d4d" x="19.88" y="133.978906" transform="rotate(-0 19.88 133.978906)">TME scenario</text>
   </g>
   <g id="text_21">
    <!-- O$_2$ / lactate / TGF-$\beta$ -->
    <g style="fill: #4d4d4d" transform="translate(26.4736 142.36)">
     <text>
      <tspan x="0" y="-0.171875" style="font-size: 5px; font-family: 'Arial'; fill: #4d4d4d">O</tspan>
      <tspan x="6.300537" y="-0.171875" style="font-size: 5px; font-family: 'Arial'; fill: #4d4d4d"> </tspan>
      <tspan x="7.689697" y="-0.171875" style="font-size: 5px; font-family: 'Arial'; fill: #4d4d4d">/</tspan>
      <tspan x="9.078857" y="-0.171875" style="font-size: 5px; font-family: 'Arial'; fill: #4d4d4d"> </tspan>
      <tspan x="10.468018" y="-0.171875" style="font-size: 5px; font-family: 'Arial'; fill: #4d4d4d">l</tspan>
      <tspan x="11.578857" y="-0.171875" style="font-size: 5px; font-family: 'Arial'; fill: #4d4d4d">a</tspan>
      <tspan x="14.359619" y="-0.171875" style="font-size: 5px; font-family: 'Arial'; fill: #4d4d4d">c</tspan>
      <tspan x="16.859619" y="-0.171875" style="font-size: 5px; font-family: 'Arial'; fill: #4d4d4d">t</tspan>
      <tspan x="18.248779" y="-0.171875" style="font-size: 5px; font-family: 'Arial'; fill: #4d4d4d">a</tspan>
      <tspan x="21.029541" y="-0.171875" style="font-size: 5px; font-family: 'Arial'; fill: #4d4d4d">t</tspan>
      <tspan x="22.418701" y="-0.171875" style="font-size: 5px; font-family: 'Arial'; fill: #4d4d4d">e</tspan>
      <tspan x="25.199463" y="-0.171875" style="font-size: 5px; font-family: 'Arial'; fill: #4d4d4d"> </tspan>
      <tspan x="26.588623" y="-0.171875" style="font-size: 5px; font-family: 'Arial'; fill: #4d4d4d">/</tspan>
      <tspan x="27.977783" y="-0.171875" style="font-size: 5px; font-family: 'Arial'; fill: #4d4d4d"> </tspan>
      <tspan x="29.366943" y="-0.171875" style="font-size: 5px; font-family: 'Arial'; fill: #4d4d4d">T</tspan>
      <tspan x="32.421143" y="-0.171875" style="font-size: 5px; font-family: 'Arial'; fill: #4d4d4d">G</tspan>
      <tspan x="36.310303" y="-0.171875" style="font-size: 5px; font-family: 'Arial'; fill: #4d4d4d">F</tspan>
      <tspan x="39.364502" y="-0.171875" style="font-size: 5px; font-family: 'Arial'; fill: #4d4d4d">-</tspan>
      <tspan x="3.937012" y="0.648438" style="font-size: 3.5px; font-family: 'DejaVu Sans'; fill: #4d4d4d">2</tspan>
      <tspan x="41.029541" y="-0.171875" style="font-style: oblique; font-size: 5px; font-family: 'DejaVu Sans'; fill: #4d4d4d">β</tspan>
     </text>
    </g>
   </g>
   <g id="text_22">
    <text style="font-size: 5px; font-family: 'Arial', 'Helvetica', 'DejaVu Sans', sans-serif; text-anchor: start; fill: #4d4d4d" x="26.4736" y="161.452578" transform="rotate(-0 26.4736 161.452578)">random seed</text>
   </g>
   <g id="text_23">
    <text style="font-weight: 700; font-size: 6.5px; font-family: 'Arial', 'Helvetica', 'DejaVu Sans', sans-serif; text-anchor: start; fill: #4d4d4d" x="400.28" y="34.252578" transform="rotate(-0 400.28 34.252578)">Real-time readouts</text>
   </g>
   <g id="text_24">
    <text style="font-size: 5px; font-family: 'Arial', 'Helvetica', 'DejaVu Sans', sans-serif; text-anchor: start; fill: #4d4d4d" x="406.8736" y="46.252578" transform="rotate(-0 406.8736 46.252578)">tumor burden</text>
   </g>
   <g id="text_25">
    <text style="font-size: 5px; font-family: 'Arial', 'Helvetica', 'DejaVu Sans', sans-serif; text-anchor: start; fill: #4d4d4d" x="406.8736" y="65.423281" transform="rotate(-0 406.8736 65.423281)">phagocytosis rate</text>
   </g>
   <g id="text_26">
    <text style="font-size: 5px; font-family: 'Arial', 'Helvetica', 'DejaVu Sans', sans-serif; text-anchor: start; fill: #4d4d4d" x="406.8736" y="84.652578" transform="rotate(-0 406.8736 84.652578)">M1-M2 balance</text>
   </g>
   <g id="text_27">
    <!-- CD8$^+$ activation -->
    <g style="fill: #4d4d4d" transform="translate(406.8736 103.852578)">
     <text>
      <tspan x="0" y="-0.8875" style="font-size: 5px; font-family: 'Arial'; fill: #4d4d4d">C</tspan>
      <tspan x="3.61084" y="-0.8875" style="font-size: 5px; font-family: 'Arial'; fill: #4d4d4d">D</tspan>
      <tspan x="7.22168" y="-0.8875" style="font-size: 5px; font-family: 'Arial'; fill: #4d4d4d">8</tspan>
      <tspan x="14.483398" y="-0.8875" style="font-size: 5px; font-family: 'Arial'; fill: #4d4d4d"> </tspan>
      <tspan x="15.872559" y="-0.8875" style="font-size: 5px; font-family: 'Arial'; fill: #4d4d4d">a</tspan>
      <tspan x="18.65332" y="-0.8875" style="font-size: 5px; font-family: 'Arial'; fill: #4d4d4d">c</tspan>
      <tspan x="21.15332" y="-0.8875" style="font-size: 5px; font-family: 'Arial'; fill: #4d4d4d">t</tspan>
      <tspan x="22.54248" y="-0.8875" style="font-size: 5px; font-family: 'Arial'; fill: #4d4d4d">i</tspan>
      <tspan x="23.65332" y="-0.8875" style="font-size: 5px; font-family: 'Arial'; fill: #4d4d4d">v</tspan>
      <tspan x="26.15332" y="-0.8875" style="font-size: 5px; font-family: 'Arial'; fill: #4d4d4d">a</tspan>
      <tspan x="28.934082" y="-0.8875" style="font-size: 5px; font-family: 'Arial'; fill: #4d4d4d">t</tspan>
      <tspan x="30.323242" y="-0.8875" style="font-size: 5px; font-family: 'Arial'; fill: #4d4d4d">i</tspan>
      <tspan x="31.434082" y="-0.8875" style="font-size: 5px; font-family: 'Arial'; fill: #4d4d4d">o</tspan>
      <tspan x="34.214844" y="-0.8875" style="font-size: 5px; font-family: 'Arial'; fill: #4d4d4d">n</tspan>
      <tspan x="10.732178" y="-2.801563" style="font-size: 3.5px; font-family: 'DejaVu Sans'; fill: #4d4d4d">+</tspan>
     </text>
    </g>
   </g>
   <g id="text_28">
    <text style="font-size: 5px; font-family: 'Arial', 'Helvetica', 'DejaVu Sans', sans-serif; text-anchor: start; fill: #4d4d4d" x="406.8736" y="123.05375" transform="rotate(-0 406.8736 123.05375)">spatial cytokine / ECM field</text>
   </g>
   <g id="text_29">
    <text style="font-size: 5px; font-family: 'Arial', 'Helvetica', 'DejaVu Sans', sans-serif; text-anchor: start; fill: #4d4d4d" x="406.8736" y="142.252578" transform="rotate(-0 406.8736 142.252578)">3D cell viewer</text>
   </g>
   <g id="text_30">
    <text style="font-weight: 700; font-size: 5.6px; font-family: 'Arial', 'Helvetica', 'DejaVu Sans', sans-serif; text-anchor: middle; fill: #4d4d4d" x="260.8" y="285.129" transform="rotate(-0 260.8 285.129)">Reproducibility &amp; openness</text>
   </g>
   <g id="text_31">
    <!-- seed 20250706 $\rightarrow$ bit-for-bit runs; benchmark + code ship together -->
    <g style="fill: #4d4d4d" transform="translate(187.986 297.7295)">
     <text>
      <tspan x="0" y="-0.359375" style="font-size: 4.9px; font-family: 'Arial'; fill: #4d4d4d">s</tspan>
      <tspan x="2.4375" y="-0.359375" style="font-size: 4.9px; font-family: 'Arial'; fill: #4d4d4d">e</tspan>
      <tspan x="5.148743" y="-0.359375" style="font-size: 4.9px; font-family: 'Arial'; fill: #4d4d4d">e</tspan>
      <tspan x="7.859985" y="-0.359375" style="font-size: 4.9px; font-family: 'Arial'; fill: #4d4d4d">d</tspan>
      <tspan x="10.571228" y="-0.359375" style="font-size: 4.9px; font-family: 'Arial'; fill: #4d4d4d"> </tspan>
      <tspan x="11.925659" y="-0.359375" style="font-size: 4.9px; font-family: 'Arial'; fill: #4d4d4d">2</tspan>
      <tspan x="14.636902" y="-0.359375" style="font-size: 4.9px; font-family: 'Arial'; fill: #4d4d4d">0</tspan>
      <tspan x="17.348145" y="-0.359375" style="font-size: 4.9px; font-family: 'Arial'; fill: #4d4d4d">2</tspan>
      <tspan x="20.059387" y="-0.359375" style="font-size: 4.9px; font-family: 'Arial'; fill: #4d4d4d">5</tspan>
      <tspan x="22.77063" y="-0.359375" style="font-size: 4.9px; font-family: 'Arial'; fill: #4d4d4d">0</tspan>
      <tspan x="25.481873" y="-0.359375" style="font-size: 4.9px; font-family: 'Arial'; fill: #4d4d4d">7</tspan>
      <tspan x="28.193115" y="-0.359375" style="font-size: 4.9px; font-family: 'Arial'; fill: #4d4d4d">0</tspan>
      <tspan x="30.904358" y="-0.359375" style="font-size: 4.9px; font-family: 'Arial'; fill: #4d4d4d">6</tspan>
      <tspan x="33.615601" y="-0.359375" style="font-size: 4.9px; font-family: 'Arial'; fill: #4d4d4d"> </tspan>
      <tspan x="40.954285" y="-0.359375" style="font-size: 4.9px; font-family: 'Arial'; fill: #4d4d4d"> </tspan>
      <tspan x="42.308716" y="-0.359375" style="font-size: 4.9px; font-family: 'Arial'; fill: #4d4d4d">b</tspan>
      <tspan x="45.019958" y="-0.359375" style="font-size: 4.9px; font-family: 'Arial'; fill: #4d4d4d">i</tspan>
      <tspan x="46.103027" y="-0.359375" style="font-size: 4.9px; font-family: 'Arial'; fill: #4d4d4d">t</tspan>
      <tspan x="47.457458" y="-0.359375" style="font-size: 4.9px; font-family: 'Arial'; fill: #4d4d4d">-</tspan>
      <tspan x="49.080872" y="-0.359375" style="font-size: 4.9px; font-family: 'Arial'; fill: #4d4d4d">f</tspan>
      <tspan x="50.435303" y="-0.359375" style="font-size: 4.9px; font-family: 'Arial'; fill: #4d4d4d">o</tspan>
      <tspan x="53.146545" y="-0.359375" style="font-size: 4.9px; font-family: 'Arial'; fill: #4d4d4d">r</tspan>
      <tspan x="54.769958" y="-0.359375" style="font-size: 4.9px; font-family: 'Arial'; fill: #4d4d4d">-</tspan>
      <tspan x="56.393372" y="-0.359375" style="font-size: 4.9px; font-family: 'Arial'; fill: #4d4d4d">b</tspan>
      <tspan x="59.104614" y="-0.359375" style="font-size: 4.9px; font-family: 'Arial'; fill: #4d4d4d">i</tspan>
      <tspan x="60.187683" y="-0.359375" style="font-size: 4.9px; font-family: 'Arial'; fill: #4d4d4d">t</tspan>
      <tspan x="61.542114" y="-0.359375" style="font-size: 4.9px; font-family: 'Arial'; fill: #4d4d4d"> </tspan>
      <tspan x="62.896545" y="-0.359375" style="font-size: 4.9px; font-family: 'Arial'; fill: #4d4d4d">r</tspan>
      <tspan x="64.519958" y="-0.359375" style="font-size: 4.9px; font-family: 'Arial'; fill: #4d4d4d">u</tspan>
      <tspan x="67.231201" y="-0.359375" style="font-size: 4.9px; font-family: 'Arial'; fill: #4d4d4d">n</tspan>
      <tspan x="69.942444" y="-0.359375" style="font-size: 4.9px; font-family: 'Arial'; fill: #4d4d4d">s</tspan>
      <tspan x="72.379944" y="-0.359375" style="font-size: 4.9px; font-family: 'Arial'; fill: #4d4d4d">;</tspan>
      <tspan x="73.734375" y="-0.359375" style="font-size: 4.9px; font-family: 'Arial'; fill: #4d4d4d"> </tspan>
      <tspan x="75.088806" y="-0.359375" style="font-size: 4.9px; font-family: 'Arial'; fill: #4d4d4d">b</tspan>
      <tspan x="77.800049" y="-0.359375" style="font-size: 4.9px; font-family: 'Arial'; fill: #4d4d4d">e</tspan>
      <tspan x="80.511292" y="-0.359375" style="font-size: 4.9px; font-family: 'Arial'; fill: #4d4d4d">n</tspan>
      <tspan x="83.222534" y="-0.359375" style="font-size: 4.9px; font-family: 'Arial'; fill: #4d4d4d">c</tspan>
      <tspan x="85.660034" y="-0.359375" style="font-size: 4.9px; font-family: 'Arial'; fill: #4d4d4d">h</tspan>
      <tspan x="88.371277" y="-0.359375" style="font-size: 4.9px; font-family: 'Arial'; fill: #4d4d4d">m</tspan>
      <tspan x="92.43219" y="-0.359375" style="font-size: 4.9px; font-family: 'Arial'; fill: #4d4d4d">a</tspan>
      <tspan x="95.143433" y="-0.359375" style="font-size: 4.9px; font-family: 'Arial'; fill: #4d4d4d">r</tspan>
      <tspan x="96.766846" y="-0.359375" style="font-size: 4.9px; font-family: 'Arial'; fill: #4d4d4d">k</tspan>
      <tspan x="99.204346" y="-0.359375" style="font-size: 4.9px; font-family: 'Arial'; fill: #4d4d4d"> </tspan>
      <tspan x="100.558777" y="-0.359375" style="font-size: 4.9px; font-family: 'Arial'; fill: #4d4d4d">+</tspan>
      <tspan x="103.405701" y="-0.359375" style="font-size: 4.9px; font-family: 'Arial'; fill: #4d4d4d"> </tspan>
      <tspan x="104.760132" y="-0.359375" style="font-size: 4.9px; font-family: 'Arial'; fill: #4d4d4d">c</tspan>
      <tspan x="107.197632" y="-0.359375" style="font-size: 4.9px; font-family: 'Arial'; fill: #4d4d4d">o</tspan>
      <tspan x="109.908875" y="-0.359375" style="font-size: 4.9px; font-family: 'Arial'; fill: #4d4d4d">d</tspan>
      <tspan x="112.620117" y="-0.359375" style="font-size: 4.9px; font-family: 'Arial'; fill: #4d4d4d">e</tspan>
      <tspan x="115.33136" y="-0.359375" style="font-size: 4.9px; font-family: 'Arial'; fill: #4d4d4d"> </tspan>
      <tspan x="116.685791" y="-0.359375" style="font-size: 4.9px; font-family: 'Arial'; fill: #4d4d4d">s</tspan>
      <tspan x="119.123291" y="-0.359375" style="font-size: 4.9px; font-family: 'Arial'; fill: #4d4d4d">h</tspan>
      <tspan x="121.834534" y="-0.359375" style="font-size: 4.9px; font-family: 'Arial'; fill: #4d4d4d">i</tspan>
      <tspan x="122.917603" y="-0.359375" style="font-size: 4.9px; font-family: 'Arial'; fill: #4d4d4d">p</tspan>
      <tspan x="125.628845" y="-0.359375" style="font-size: 4.9px; font-family: 'Arial'; fill: #4d4d4d"> </tspan>
      <tspan x="126.983276" y="-0.359375" style="font-size: 4.9px; font-family: 'Arial'; fill: #4d4d4d">t</tspan>
      <tspan x="128.337708" y="-0.359375" style="font-size: 4.9px; font-family: 'Arial'; fill: #4d4d4d">o</tspan>
      <tspan x="131.04895" y="-0.359375" style="font-size: 4.9px; font-family: 'Arial'; fill: #4d4d4d">g</tspan>
      <tspan x="133.760193" y="-0.359375" style="font-size: 4.9px; font-family: 'Arial'; fill: #4d4d4d">e</tspan>
      <tspan x="136.471436" y="-0.359375" style="font-size: 4.9px; font-family: 'Arial'; fill: #4d4d4d">t</tspan>
      <tspan x="137.825867" y="-0.359375" style="font-size: 4.9px; font-family: 'Arial'; fill: #4d4d4d">h</tspan>
      <tspan x="140.537109" y="-0.359375" style="font-size: 4.9px; font-family: 'Arial'; fill: #4d4d4d">e</tspan>
      <tspan x="143.248352" y="-0.359375" style="font-size: 4.9px; font-family: 'Arial'; fill: #4d4d4d">r</tspan>
      <tspan x="35.9198" y="-0.359375" style="font-size: 4.9px; font-family: 'DejaVu Sans'; fill: #4d4d4d">→</tspan>
     </text>
    </g>
   </g>
   <g id="patch_25">
    <path d="M 210.08 82.387292 
Q 210.08 76.001598 210.08 69.615904 
" style="fill: none; stroke: #767676; stroke-width: 0.8; stroke-linecap: round"/>
    <path d="M 211.68 79.187292 
L 210.08 82.387292 
L 208.48 79.187292 
z
" style="fill: #767676; stroke: #767676; stroke-width: 0.8; stroke-linecap: round"/>
    <path d="M 208.48 72.815904 
L 210.08 69.615904 
L 211.68 72.815904 
z
" style="fill: #767676; stroke: #767676; stroke-width: 0.8; stroke-linecap: round"/>
   </g>
   <g id="text_32">
    <text style="font-style: italic; font-size: 4.8px; font-family: 'Arial', 'Helvetica', 'DejaVu Sans', sans-serif; text-anchor: start; fill: #767676" x="218.1952" y="77.249125" transform="rotate(-0 218.1952 77.249125)">states / config</text>
   </g>
   <g id="patch_26">
    <path d="M 210.08 146.387292 
Q 210.08 140.001598 210.08 133.615904 
" style="fill: none; stroke: #767676; stroke-width: 0.8; stroke-linecap: round"/>
    <path d="M 211.68 143.187292 
L 210.08 146.387292 
L 208.48 143.187292 
z
" style="fill: #767676; stroke: #767676; stroke-width: 0.8; stroke-linecap: round"/>
    <path d="M 208.48 136.815904 
L 210.08 133.615904 
L 211.68 136.815904 
z
" style="fill: #767676; stroke: #767676; stroke-width: 0.8; stroke-linecap: round"/>
   </g>
   <g id="text_33">
    <text style="font-style: italic; font-size: 4.8px; font-family: 'Arial', 'Helvetica', 'DejaVu Sans', sans-serif; text-anchor: start; fill: #767676" x="218.1952" y="141.240875" transform="rotate(-0 218.1952 141.240875)">context / M1-M2</text>
   </g>
   <g id="patch_27">
    <path d="M 210.08 210.387292 
Q 210.08 204.001598 210.08 197.615904 
" style="fill: none; stroke: #767676; stroke-width: 0.8; stroke-linecap: round"/>
    <path d="M 211.68 207.187292 
L 210.08 210.387292 
L 208.48 207.187292 
z
" style="fill: #767676; stroke: #767676; stroke-width: 0.8; stroke-linecap: round"/>
    <path d="M 208.48 200.815904 
L 210.08 197.615904 
L 211.68 200.815904 
z
" style="fill: #767676; stroke: #767676; stroke-width: 0.8; stroke-linecap: round"/>
   </g>
   <g id="text_34">
    <text style="font-style: italic; font-size: 4.8px; font-family: 'Arial', 'Helvetica', 'DejaVu Sans', sans-serif; text-anchor: start; fill: #767676" x="218.1952" y="205.270125" transform="rotate(-0 218.1952 205.270125)">priors / params</text>
   </g>
   <g id="patch_28">
    <path d="M 130.930301 109.6 
Q 144.143934 109.6 156.351336 109.6 
" style="fill: none; stroke: #767676; stroke-width: 0.9; stroke-linecap: round"/>
    <path d="M 152.751336 107.8 
L 156.351336 109.6 
L 152.751336 111.4 
z
" style="fill: #767676; stroke: #767676; stroke-width: 0.9; stroke-linecap: round"/>
   </g>
   <g id="text_35">
    <text style="font-style: italic; font-size: 5.2px; font-family: 'Arial', 'Helvetica', 'DejaVu Sans', sans-serif; text-anchor: middle; fill: #767676" x="144.144" y="104.361" transform="rotate(-0 144.144 104.361)">configure</text>
   </g>
   <g id="patch_29">
    <path d="M 364.242301 109.6 
Q 377.455934 109.6 389.663336 109.6 
" style="fill: none; stroke: #767676; stroke-width: 0.9; stroke-linecap: round"/>
    <path d="M 386.063336 107.8 
L 389.663336 109.6 
L 386.063336 111.4 
z
" style="fill: #767676; stroke: #767676; stroke-width: 0.9; stroke-linecap: round"/>
   </g>
   <g id="text_36">
    <text style="font-style: italic; font-size: 5.2px; font-family: 'Arial', 'Helvetica', 'DejaVu Sans', sans-serif; text-anchor: middle; fill: #767676" x="377.456" y="104.4065" transform="rotate(-0 377.456 104.4065)">observe</text>
   </g>
  </g>
 </g>
 <defs>
  <clipPath id="pf40c9a8c79">
   <rect x="7.2" y="7.2" width="507.2" height="320"/>
  </clipPath>
 </defs>
</svg>
